<svg width="86" height="86" viewBox="0 0 86 86" fill="none" xmlns="http://www.w3.org/2000/svg">
<path fill-rule="evenodd" clip-rule="evenodd" d="M7.07193 6.8531C7.09887 6.02537 7.79586 5.37607 8.62869 5.40285C9.96663 5.44586 11.3445 5.52482 12.756 5.64304C13.5863 5.71259 14.2027 6.43796 14.1327 7.26319C14.0627 8.08843 13.3329 8.70103 12.5025 8.63148C11.1428 8.51758 9.81682 8.44165 8.53113 8.40031C7.6983 8.37354 7.04499 7.68083 7.07193 6.8531ZM16.1635 7.49669C16.2841 6.67726 17.0503 6.11015 17.8748 6.23002C19.2109 6.42429 20.5686 6.65374 21.9429 6.92087C22.7607 7.07982 23.2939 7.86755 23.134 8.68031C22.9741 9.49308 22.1815 10.0231 21.3637 9.86414C20.0373 9.60632 18.7271 9.3849 17.438 9.19747C16.6135 9.0776 16.0429 8.31613 16.1635 7.49669ZM25.1233 9.12836C25.3317 8.3265 26.1546 7.84434 26.9614 8.05142C28.276 8.38883 29.6004 8.76177 30.9306 9.17228C31.7264 9.41787 32.1712 10.2581 31.9241 11.049C31.677 11.8399 30.8316 12.282 30.0358 12.0364C28.753 11.6405 27.4754 11.2808 26.2069 10.9552C25.4001 10.7481 24.915 9.93021 25.1233 9.12836ZM33.8586 11.7109C34.1543 10.9366 35.0255 10.5472 35.8046 10.841C37.0774 11.3211 38.3514 11.8375 39.6232 12.392C40.3863 12.7246 40.7335 13.6091 40.3988 14.3675C40.0641 15.1259 39.1741 15.4711 38.411 15.1384C37.187 14.6047 35.9602 14.1075 34.7339 13.6449C33.9548 13.3511 33.563 12.4852 33.8586 11.7109ZM42.2469 15.2447C42.6306 14.5096 43.5413 14.2228 44.2809 14.6042C45.4931 15.2292 46.6995 15.8914 47.897 16.5924C48.615 17.0126 48.8543 17.9318 48.4314 18.6454C48.0085 19.359 47.0837 19.5968 46.3657 19.1765C45.2157 18.5034 44.0566 17.8671 42.8913 17.2663C42.1517 16.8849 41.8631 15.9798 42.2469 15.2447ZM50.1574 19.736C50.6287 19.053 51.5678 18.8791 52.255 19.3474C53.3815 20.1153 54.4965 20.9208 55.5971 21.7652C56.2566 22.2713 56.3785 23.213 55.8693 23.8685C55.3601 24.5241 54.4126 24.6452 53.7531 24.1391C52.6981 23.3297 51.629 22.5573 50.5484 21.8207C49.8611 21.3524 49.6861 20.419 50.1574 19.736ZM57.4413 25.1659C57.9963 24.5482 58.9501 24.4946 59.5716 25.0462C60.5901 25.9503 61.5924 26.8917 62.5759 27.8717C63.1643 28.4581 63.1631 29.4075 62.5731 29.9924C61.9831 30.5772 61.0278 30.5759 60.4394 29.9896C59.4973 29.0509 58.5374 28.1491 57.5617 27.2831C56.9401 26.7315 56.8863 25.7836 57.4413 25.1659ZM63.966 31.4847C64.5969 30.9437 65.5497 31.0134 66.094 31.6405C66.9843 32.6661 67.855 33.728 68.7038 34.8273C69.2112 35.4843 69.0866 36.4256 68.4256 36.9298C67.7645 37.434 66.8174 37.3102 66.3101 36.6532C65.4964 35.5996 64.6622 34.5821 63.8093 33.5996C63.2649 32.9725 63.3351 32.0256 63.966 31.4847ZM69.6156 38.5899C70.3107 38.1331 71.2467 38.3228 71.7063 39.0136C72.4557 40.14 73.1833 41.3008 73.8874 42.4966C74.3083 43.2114 74.0665 44.1299 73.3473 44.5482C72.6282 44.9665 71.704 44.7262 71.2831 44.0114C70.6067 42.8627 69.9082 41.7485 69.1892 40.6677C68.7296 39.9769 68.9205 39.0466 69.6156 38.5899ZM74.3226 46.3402C75.068 45.9701 75.9742 46.2706 76.3466 47.0115C76.9516 48.2151 77.5341 49.4505 78.0926 50.7183C78.4268 51.4769 78.079 52.3611 77.3157 52.6933C76.5524 53.0255 75.6627 52.6798 75.3284 51.9212C74.7902 50.6995 74.2293 49.5099 73.6471 48.3518C73.2748 47.611 73.5771 46.7103 74.3226 46.3402ZM78.078 54.5802C78.8601 54.2943 79.7272 54.6927 80.0148 55.47C80.4809 56.7296 80.9246 58.0181 81.3447 59.3362C81.5963 60.1257 81.1564 60.9685 80.362 61.2186C79.5676 61.4687 78.7197 61.0314 78.468 60.2419C78.0616 58.9669 77.6328 57.7214 77.1827 56.5051C76.8951 55.7278 77.296 54.866 78.078 54.5802ZM80.925 63.171C81.7318 62.9638 82.5548 63.4457 82.7634 64.2476C83.1016 65.5481 83.4181 66.8751 83.7119 68.2289C83.8876 69.0384 83.3697 69.8363 82.5551 70.0109C81.7406 70.1855 80.9378 69.6707 80.7622 68.8612C80.4769 67.5465 80.1698 66.259 79.8418 64.9981C79.6333 64.1963 80.1182 63.3783 80.925 63.171ZM82.9386 72.0147C83.7606 71.8787 84.5378 72.4307 84.6747 73.2476C84.8958 74.5681 85.0964 75.9122 85.2757 77.2804C85.3833 78.1017 84.8007 78.8541 83.9744 78.961C83.1481 79.068 82.391 78.4889 82.2834 77.6677C82.1087 76.3341 81.9133 75.0251 81.6981 73.7401C81.5613 72.9232 82.1167 72.1507 82.9386 72.0147ZM84.1938 80.9692C85.0238 80.8963 85.7561 81.5059 85.8295 82.3309C85.8901 83.0124 85.9456 83.6995 85.996 84.3923C86.0561 85.2183 85.4311 85.9363 84.6 85.996C83.7689 86.0557 83.0464 85.4345 82.9863 84.6085C82.9371 83.9316 82.8828 83.2604 82.8237 82.5949C82.7503 81.7699 83.3637 81.0421 84.1938 80.9692Z" fill="white"/>
<path d="M0.368174 6.04384C-0.177268 6.66992 -0.108763 7.61692 0.521184 8.15902L5.91855 13.797C6.54849 14.3391 7.50133 14.271 8.04678 13.6449C8.59222 13.0188 8.52371 12.0718 7.89377 11.5297L4.63956 7.71925C4.29415 7.31479 4.32578 6.71071 4.71155 6.34454L8.7817 2.48115C9.32714 1.85507 9.25864 0.908068 8.62869 0.365971C7.99874 -0.176125 7.0459 -0.10804 6.50046 0.518043L0.368174 6.04384Z" fill="white"/>
</svg>
