<svg width="29" height="29" viewBox="0 0 29 29" fill="none" xmlns="http://www.w3.org/2000/svg">
<mask id="mask0_7_25" style="mask-type:alpha" maskUnits="userSpaceOnUse" x="0" y="0" width="29" height="29">
<rect width="29" height="29" fill="#D9D9D9"/>
</mask>
<g mask="url(#mask0_7_25)">
<path d="M14.8708 13.5271C13.5668 13.5271 12.4504 13.0628 11.5218 12.1341C10.5931 11.2055 10.1288 10.0891 10.1288 8.7851C10.1288 7.48104 10.5931 6.3647 11.5218 5.43605C12.4504 4.50741 13.5668 4.04309 14.8708 4.04309C16.1749 4.04309 17.2912 4.50741 18.2199 5.43605C19.1485 6.3647 19.6128 7.48104 19.6128 8.7851C19.6128 10.0891 19.1485 11.2055 18.2199 12.1341C17.2912 13.0628 16.1749 13.5271 14.8708 13.5271ZM3.80615 24.9569V22.3547C3.80615 21.7022 3.9961 21.0917 4.37598 20.5231C4.75613 19.9549 5.26735 19.5136 5.90963 19.1993C7.40125 18.4841 8.8938 17.9476 10.3873 17.5898C11.8807 17.2323 13.3753 17.0536 14.8708 17.0536C16.3664 17.0536 17.8609 17.2323 19.3544 17.5898C20.8479 17.9476 22.3404 18.4841 23.832 19.1993C24.4743 19.5136 24.9855 19.9549 25.3657 20.5231C25.7456 21.0917 25.9355 21.7022 25.9355 22.3547V24.9569H3.80615ZM5.38682 23.3762H24.3548V22.3547C24.3548 22.0041 24.2418 21.6748 24.0158 21.3668C23.79 21.0589 23.4774 20.7984 23.0781 20.5856C21.7772 19.9554 20.4358 19.4727 19.0541 19.1373C17.6723 18.8019 16.2779 18.6342 14.8708 18.6342C13.4638 18.6342 12.0694 18.8019 10.6876 19.1373C9.30583 19.4727 7.9645 19.9554 6.66361 20.5856C6.26422 20.7984 5.95165 21.0589 5.72587 21.3668C5.49984 21.6748 5.38682 22.0041 5.38682 22.3547V23.3762ZM14.8708 11.9464C15.7402 11.9464 16.4844 11.6369 17.1035 11.0178C17.7226 10.3987 18.0322 9.65446 18.0322 8.7851C18.0322 7.91573 17.7226 7.1715 17.1035 6.5524C16.4844 5.93331 15.7402 5.62376 14.8708 5.62376C14.0015 5.62376 13.2572 5.93331 12.6381 6.5524C12.019 7.1715 11.7095 7.91573 11.7095 8.7851C11.7095 9.65446 12.019 10.3987 12.6381 11.0178C13.2572 11.6369 14.0015 11.9464 14.8708 11.9464Z" fill="#1C1B1F"/>
</g>
</svg>
