<svg width="30" height="29" viewBox="0 0 30 29" fill="none" xmlns="http://www.w3.org/2000/svg">
<mask id="mask0_7_31" style="mask-type:alpha" maskUnits="userSpaceOnUse" x="0" y="0" width="30" height="29">
<rect x="0.325928" width="29" height="29" fill="#D9D9D9"/>
</mask>
<g mask="url(#mask0_7_31)">
<path d="M5.3418 24.135V22.7421H7.53057V11.7066C7.53057 9.88681 8.09069 8.28631 9.21094 6.90507C10.3314 5.52383 11.7514 4.66363 13.4709 4.32447V3.56363C13.4709 3.17665 13.6024 2.84782 13.8652 2.57714C14.1281 2.30623 14.4472 2.17078 14.8228 2.17078C15.1983 2.17078 15.5185 2.30623 15.7834 2.57714C16.0482 2.84782 16.1807 3.17665 16.1807 3.56363V4.32447C17.9002 4.66363 19.3202 5.52383 20.4407 6.90507C21.5609 8.28631 22.121 9.88681 22.121 11.7066V22.7421H24.3098V24.135H5.3418ZM14.8211 27.7776C14.2179 27.7776 13.7032 27.5573 13.2769 27.1167C12.8503 26.6761 12.637 26.1465 12.637 25.5278H17.0146C17.0146 26.1511 16.7997 26.6819 16.37 27.1202C15.9405 27.5585 15.4242 27.7776 14.8211 27.7776ZM8.88543 22.7421H20.7662V11.7066C20.7662 10.0136 20.1878 8.57243 19.031 7.38317C17.8741 6.1939 16.4724 5.59928 14.8258 5.59928C13.1792 5.59928 11.7775 6.1939 10.6207 7.38317C9.46384 8.57243 8.88543 10.0136 8.88543 11.7066V22.7421Z" fill="#1C1B1F"/>
</g>
</svg>
