<svg width="43" height="43" viewBox="0 0 43 43" fill="none" xmlns="http://www.w3.org/2000/svg">
<mask id="mask0_7_25" style="mask-type:alpha" maskUnits="userSpaceOnUse" x="0" y="0" width="43" height="43">
<rect width="43" height="43" fill="#D9D9D9"/>
</mask>
<g mask="url(#mask0_7_25)">
<path d="M22.0496 20.0574C20.116 20.0574 18.4607 19.369 17.0837 17.992C15.7068 16.6151 15.0183 14.9598 15.0183 13.0262C15.0183 11.0926 15.7068 9.43732 17.0837 8.06036C18.4607 6.68341 20.116 5.99493 22.0496 5.99493C23.9832 5.99493 25.6384 6.68341 27.0154 8.06036C28.3923 9.43732 29.0808 11.0926 29.0808 13.0262C29.0808 14.9598 28.3923 16.6151 27.0154 17.992C25.6384 19.369 23.9832 20.0574 22.0496 20.0574ZM5.64331 37.0051V33.1467C5.64331 32.1791 5.92495 31.2738 6.48823 30.4309C7.0519 29.5883 7.80991 28.934 8.76226 28.468C10.974 27.4074 13.1871 26.6119 15.4015 26.0815C17.616 25.5514 19.832 25.2863 22.0496 25.2863C24.2671 25.2863 26.4832 25.5514 28.6976 26.0815C30.9121 26.6119 33.1251 27.4074 35.3369 28.468C36.2892 28.934 37.0472 29.5883 37.6109 30.4309C38.1742 31.2738 38.4558 32.1791 38.4558 33.1467V37.0051H5.64331ZM7.98706 34.6613H36.1121V33.1467C36.1121 32.6268 35.9445 32.1385 35.6093 31.6818C35.2746 31.2252 34.8111 30.8391 34.2189 30.5234C32.29 29.5891 30.3011 28.8733 28.2523 28.376C26.2035 27.8787 24.1359 27.6301 22.0496 27.6301C19.9632 27.6301 17.8957 27.8787 15.8468 28.376C13.798 28.8733 11.8091 29.5891 9.88022 30.5234C9.28804 30.8391 8.82456 31.2252 8.48979 31.6818C8.15464 32.1385 7.98706 32.6268 7.98706 33.1467V34.6613ZM22.0496 17.7137C23.3386 17.7137 24.4421 17.2547 25.3601 16.3367C26.2781 15.4188 26.7371 14.3152 26.7371 13.0262C26.7371 11.7371 26.2781 10.6336 25.3601 9.71564C24.4421 8.79767 23.3386 8.33868 22.0496 8.33868C20.7605 8.33868 19.657 8.79767 18.739 9.71564C17.821 10.6336 17.3621 11.7371 17.3621 13.0262C17.3621 14.3152 17.821 15.4188 18.739 16.3367C19.657 17.2547 20.7605 17.7137 22.0496 17.7137Z" fill="#1C1B1F"/>
</g>
</svg>
