<svg width="43" height="43" viewBox="0 0 43 43" fill="none" xmlns="http://www.w3.org/2000/svg">
<mask id="mask0_7_31" style="mask-type:alpha" maskUnits="userSpaceOnUse" x="0" y="0" width="43" height="43">
<rect width="43" height="43" fill="#D9D9D9"/>
</mask>
<g mask="url(#mask0_7_31)">
<path d="M7.4375 35.7863V33.7211H10.6829V17.358C10.6829 14.6598 11.5134 12.2866 13.1745 10.2386C14.8359 8.19052 16.9414 6.91505 19.4911 6.41216V5.28401C19.4911 4.71021 19.6859 4.22264 20.0757 3.82129C20.4654 3.4196 20.9387 3.21875 21.4955 3.21875C22.0523 3.21875 22.5271 3.4196 22.9198 3.82129C23.3126 4.22264 23.5089 4.71021 23.5089 5.28401V6.41216C26.0586 6.91505 28.1641 8.19052 29.8255 10.2386C31.4866 12.2866 32.3171 14.6598 32.3171 17.358V33.7211H35.5625V35.7863H7.4375ZM21.493 41.1875C20.5987 41.1875 19.8354 40.8608 19.2033 40.2075C18.5708 39.5542 18.2546 38.7689 18.2546 37.8516H24.7454C24.7454 38.7758 24.4268 39.5628 23.7897 40.2127C23.1528 40.8626 22.3873 41.1875 21.493 41.1875ZM12.6919 33.7211H30.3081V17.358C30.3081 14.8477 29.4505 12.7109 27.7352 10.9475C26.0199 9.18408 23.9415 8.30239 21.5 8.30239C19.0585 8.30239 16.9801 9.18408 15.2648 10.9475C13.5495 12.7109 12.6919 14.8477 12.6919 17.358V33.7211Z" fill="#1C1B1F"/>
</g>
</svg>
